<svg xmlns="http://www.w3.org/2000/svg" xmlns:xlink="http://www.w3.org/1999/xlink" viewBox="0 0 409 73.3"><defs><style>.cls-1{fill:none;}.cls-2{clip-path:url(#clip-path);}</style><clipPath id="clip-path" transform="translate(0 0)"><rect class="cls-1" width="409" height="73.3"/></clipPath></defs><g id="Layer_2" data-name="Layer 2"><g id="Layer_1-2" data-name="Layer 1"><g class="cls-2"><path d="M20.4,52.3V42.7h3.1c3.9,0,6.3,1.8,6.3,4.8s-2.4,4.8-6.3,4.8Zm250,1.9a6,6,0,0,1-6.1-6.3,6.05,6.05,0,1,1,12.1,0,6,6,0,0,1-6,6.3m-75.5,0a6,6,0,0,1-6.1-6.3,6.05,6.05,0,1,1,12.1,0,6,6,0,0,1-6,6.3m-116.2,0a6,6,0,0,1-6.1-6.3,6.05,6.05,0,1,1,12.1,0,6,6,0,0,1-6,6.3M408.8,24.5H388.5V71.3h20.3ZM343.1,42.9h12.8L340.7,66.1V52.5h-15l15-28H297.9V42.9h12.7L291.8,71.3h94.1V52.5H371.2l14.9-28h-43ZM106.2,71.3h20V47.7a3.53,3.53,0,0,1,3.9-3.9,9.91,9.91,0,0,1,1.8.2V23.7a36.79,36.79,0,0,0-5.8-.5c-12.5,0-19.9,7.5-19.9,20.2ZM270.4,22.5c-15,0-26.3,11-26.3,25.4s11.3,25.4,26.3,25.4,26.2-11,26.2-25.4-11.3-25.4-26.2-25.4m-75.5,0c-15,0-26.3,11-26.3,25.4s11.3,25.4,26.3,25.4,26.2-11,26.2-25.4-11.3-25.4-26.2-25.4m-116.2,0c-15,0-26.3,11-26.3,25.4S63.7,73.3,78.7,73.3s26.2-11,26.2-25.4S93.6,22.5,78.7,22.5M23.3,21c3.3,0,5.1,1.6,5.1,4.2s-1.8,4.3-5.1,4.3H20.4V21ZM242.6,1.9h-20V71.3h20Zm-108.1,0V42.8c0,19.8,7.1,29.8,23.4,29.8,3.5,0,7.4-.6,9.4-1.7V52.7a17.16,17.16,0,0,1-5.1.9c-5.1,0-7.7-2.9-7.7-8.7v-2h12.8V24.5H154.5V1.9Zm-92,31.9A18.66,18.66,0,0,0,47.2,21c0-12-9.6-19.1-25.7-19.1H0V71.3H21.5c18.6,0,29.6-8.1,29.6-21.8,0-6.9-3.1-12.5-8.6-15.7M398.4,21A10.77,10.77,0,0,0,409,10.6a10.6,10.6,0,0,0-21.2,0A10.84,10.84,0,0,0,398.4,21M51.1,51.8h0" transform="translate(0 0)"/></g></g></g></svg>